<svg xmlns="http://www.w3.org/2000/svg" version="1.1" xmlns:xlink="http://www.w3.org/1999/xlink" xmlns:svgjs="http://svgjs.dev/svgjs" width="1500" height="1239" viewBox="0 0 1500 1239"><g transform="matrix(1,0,0,1,0.8778002984198565,0.5691078463310077)"><svg viewBox="0 0 299 247" data-background-color="#ffffff" preserveAspectRatio="xMidYMid meet" height="1239" width="1500" xmlns="http://www.w3.org/2000/svg" xmlns:xlink="http://www.w3.org/1999/xlink"><g id="tight-bounds" transform="matrix(1,0,0,1,-0.1749748594850189,-0.0999738406161157)"><svg viewBox="0 0 299.34994971897004 247.2" height="247.2" width="299.34994971897004"><g><svg viewBox="0 0 395.52 326.6162031822251" height="247.2" width="299.34994971897004"><g transform="matrix(1,0,0,1,0,197.6099758932216)"><svg viewBox="0 0 395.52 129.0062272890035" height="129.0062272890035" width="395.52"><g id="textblocktransform"><svg viewBox="0 0 395.52 129.0062272890035" height="129.0062272890035" width="395.52" id="textblock"><g><svg viewBox="0 0 395.52 81.8523262839879" height="81.8523262839879" width="395.52"><g transform="matrix(1,0,0,1,0,0)"><svg width="395.52" viewBox="2.1 -31.5 198.58 41.1" height="81.8523262839879" data-palette-color="#33334f"><path d="M13 0L2.1 0 2.1-1.05Q4.8-1.05 5.25-2.05L5.25-2.05 5.25-27.2Q4.8-28.2 2.1-28.2L2.1-28.2 2.1-29.25 13-29.25 13-28.2Q10.3-28.2 9.85-27.2L9.85-27.2 9.85-16.05 22.65-16.05 22.65-27.2Q22.2-28.2 19.5-28.2L19.5-28.2 19.5-29.25 30.4-29.25 30.4-28.2Q27.7-28.2 27.25-27.2L27.25-27.2 27.25-2.05Q27.7-1.05 30.4-1.05L30.4-1.05 30.4 0 19.5 0 19.5-1.05Q22.2-1.05 22.65-2.05L22.65-2.05 22.65-14.35 9.85-14.35 9.85-2.05Q10.3-1.05 13-1.05L13-1.05 13 0ZM55.75-22L55.75-3.05Q55.75-3.05 58.9-2.8L58.9-2.8 58.9-1.65Q57.95-1.65 55.17-0.58 52.4 0.5 51.25 0.5L51.25 0.5 51.25-1.8Q48.55 0.5 45.3 0.5L45.3 0.5Q40.65 0.5 38.57-1.23 36.5-2.95 36.5-6.6L36.5-6.6 36.5-19.95Q36.05-20.95 33.35-20.95L33.35-20.95 33.35-22 41-22 41-6.25Q41-1.2 45.6-1.2L45.6-1.2Q48.75-1.2 51.25-3.4L51.25-3.4 51.25-19.95Q50.8-20.95 48.1-20.95L48.1-20.95 48.1-22 55.75-22ZM59.75-22L69.45-22 69.45-20.95Q68-20.95 67.34-20.75L67.34-20.75 73.3-6.1 79-20.4Q78.3-20.95 76.2-20.95L76.2-20.95 76.2-22 84.4-22 84.4-20.95Q81.7-20.95 81.3-20.05L81.3-20.05 71.25 5.1Q70.3 7.45 68.82 8.53 67.34 9.6 66 9.6L66 9.6Q64.75 9.6 64.02 8.95 63.3 8.3 63.3 7.4L63.3 7.4Q63.3 6.65 63.82 6.05 64.34 5.45 65.25 5.45L65.25 5.45Q65.8 5.45 66.4 5.88 67 6.3 67.3 6.3L67.3 6.3Q68.34 6.3 68.7 5.4L68.7 5.4 70.84 0 62.9-19.95Q62.45-20.95 59.75-20.95L59.75-20.95 59.75-22ZM109.14 0L98.24 0 98.24-1.05Q100.94-1.05 101.39-2.05L101.39-2.05 101.39-27.2Q100.94-28.2 98.24-28.2L98.24-28.2 98.24-29.25 109.54-29.25Q115.69-29.25 118.92-26.9 122.14-24.55 122.14-21.65L122.14-21.65Q122.14-17.9 119.14-15.6 116.14-13.3 110.14-13.3L110.14-13.3 105.99-13.3 105.99-2.05Q106.44-1.05 109.14-1.05L109.14-1.05 109.14 0ZM109.54-27.55L105.99-27.55 105.99-15 110.14-15Q113.99-15 115.57-16.53 117.14-18.05 117.14-21.6L117.14-21.6Q117.14-27.55 109.54-27.55L109.54-27.55ZM134.89 0L124.09 0 124.09-1.05Q126.79-1.05 127.24-2.05L127.24-2.05 127.24-27.95Q124.14-28.2 124.09-28.2L124.09-28.2 124.09-29.35Q125.04-29.35 127.81-30.43 130.59-31.5 131.74-31.5L131.74-31.5 131.74-20.2Q134.44-22.5 137.69-22.5L137.69-22.5Q142.44-22.5 144.46-20.95 146.49-19.4 146.49-15.6L146.49-15.6 146.49-2.05Q146.94-1.05 149.64-1.05L149.64-1.05 149.64 0 138.84 0 138.84-1.05Q141.54-1.05 141.99-2.05L141.99-2.05 141.99-15.95Q141.99-20.8 137.39-20.8L137.39-20.8Q134.24-20.8 131.74-18.6L131.74-18.6 131.74-2.05Q132.19-1.05 134.89-1.05L134.89-1.05 134.89 0ZM173.79-22L173.79-3.05Q173.79-3.05 176.94-2.8L176.94-2.8 176.94-1.65Q175.99-1.65 173.21-0.58 170.44 0.5 169.29 0.5L169.29 0.5 169.29-1.8Q166.59 0.5 163.34 0.5L163.34 0.5Q158.69 0.5 156.61-1.23 154.54-2.95 154.54-6.6L154.54-6.6 154.54-19.95Q154.09-20.95 151.39-20.95L151.39-20.95 151.39-22 159.04-22 159.04-6.25Q159.04-1.2 163.64-1.2L163.64-1.2Q166.79-1.2 169.29-3.4L169.29-3.4 169.29-19.95Q168.84-20.95 166.14-20.95L166.14-20.95 166.14-22 173.79-22ZM191.63-21L191.63-21Q188.53-21 186.63-18.65 184.73-16.3 184.73-12.3L184.73-12.3Q184.73-8.05 187.11-4.73 189.48-1.4 192.48-1.4L192.48-1.4Q196.83-1.4 199.48-4.7L199.48-4.7 200.68-4.1Q199.23-1.7 196.91-0.6 194.58 0.5 190.78 0.5L190.78 0.5Q188.88 0.5 187.13-0.08 185.38-0.65 183.68-1.98 181.98-3.3 180.98-5.9 179.98-8.5 179.98-12.1L179.98-12.1Q179.98-16.45 183.06-19.48 186.13-22.5 191.13-22.5L191.13-22.5Q195.08-22.5 197.23-21.15 199.38-19.8 199.38-17.2L199.38-17.2Q199.38-16.05 198.78-15.38 198.18-14.7 197.23-14.7L197.23-14.7Q196.33-14.7 195.66-15.15 194.98-15.6 194.98-16.45L194.98-16.45Q194.98-17.5 195.51-18 196.03-18.5 196.73-18.5L196.73-18.5Q196.08-21 191.63-21Z" opacity="1" transform="matrix(1,0,0,1,0,0)" fill="#33334f" class="wordmark-text-0" data-fill-palette-color="primary" id="text-0"></path></svg></g></svg></g><g transform="matrix(1,0,0,1,75.54431999999998,101.17569606380664)"><svg viewBox="0 0 244.43136 27.830531225196854" height="27.830531225196854" width="244.43136"><g transform="matrix(1,0,0,1,0,0)"><svg width="244.43136" viewBox="1.75 -34.45 317.47 36.150000000000006" height="27.830531225196854" data-palette-color="#33334f"><path d="M10.9 1.4L10.9 1.4Q8.85 1.4 7.05 1.28 5.25 1.15 2.5 0.55L2.5 0.55Q2.15 0.15 1.95-0.43 1.75-1 1.75-1.25L1.75-1.25Q1.75-1.6 1.9-1.6L1.9-1.6Q2.3-1.6 3.73-1.23 5.15-0.85 7.9-0.85L7.9-0.85Q11.95-0.85 14.95-2.33 17.95-3.8 19.6-6.2 21.25-8.6 21.25-11.35L21.25-11.35Q21.25-14.45 19.53-17.05 17.8-19.65 15-21.8 12.2-23.95 9.05-25.6L9.05-25.6Q9.15-23.9 9.18-22.15 9.2-20.4 9.2-18.6L9.2-18.6Q9.2-15.35 8.95-12.23 8.7-9.1 8.33-6.78 7.95-4.45 7.55-3.6L7.55-3.6Q7.25-3.25 6.73-3.05 6.2-2.85 5.95-2.85L5.95-2.85Q5.6-2.85 5.6-3L5.6-3Q5.85-4.5 6.08-6.8 6.3-9.1 6.3-11.75L6.3-11.75Q6.3-15.45 5.93-19.15 5.55-22.85 4.6-25.93 3.65-29 1.85-30.75L1.85-30.75 3.95-34.1Q6.75-31.35 9.9-29.15 13.05-26.95 16.03-25 19-23.05 21.4-21.05 23.8-19.05 25.25-16.73 26.7-14.4 26.7-11.35L26.7-11.35Q26.7-8.45 25.6-6.33 24.5-4.2 22.7-2.73 20.9-1.25 18.78-0.33 16.65 0.6 14.58 1 12.5 1.4 10.9 1.4ZM43.1-1L39.15 1.4Q38.75 1.4 38.05 1.18 37.35 0.95 36.95 0.45L36.95 0.45Q35.6-2.3 34.22-6.08 32.85-9.85 31.62-14.2 30.4-18.55 29.52-23.08 28.65-27.6 28.3-31.8L28.3-31.8 32.65-33.85 33.95-33.05Q33.85-31.8 33.8-30.53 33.75-29.25 33.75-28L33.75-28Q33.75-21.15 35.1-14.78 36.45-8.4 38.6-2L38.6-2Q39-4.55 39.77-7.73 40.55-10.9 41.6-14.35 42.65-17.8 43.87-21.2 45.1-24.6 46.42-27.6 47.75-30.6 49.05-32.9L49.05-32.9Q49.5-33.3 50.27-33.58 51.05-33.85 51.5-33.85L51.5-33.85Q51.7-33.85 51.7-33.6L51.7-33.6Q51.7-33.15 50.77-30.95 49.85-28.75 48.47-24.73 47.1-20.7 45.62-14.8 44.15-8.9 43.1-1L43.1-1ZM61.85 1.4L61.85 1.4Q59.8 1.4 58 1.28 56.2 1.15 53.45 0.55L53.45 0.55Q53.1 0.15 52.9-0.43 52.7-1 52.7-1.25L52.7-1.25Q52.7-1.6 52.85-1.6L52.85-1.6Q53.25-1.6 54.67-1.23 56.1-0.85 58.85-0.85L58.85-0.85Q62.9-0.85 65.9-2.33 68.9-3.8 70.55-6.2 72.2-8.6 72.2-11.35L72.2-11.35Q72.2-14.45 70.47-17.05 68.75-19.65 65.95-21.8 63.15-23.95 60-25.6L60-25.6Q60.1-23.9 60.12-22.15 60.15-20.4 60.15-18.6L60.15-18.6Q60.15-15.35 59.9-12.23 59.65-9.1 59.27-6.78 58.9-4.45 58.5-3.6L58.5-3.6Q58.2-3.25 57.67-3.05 57.15-2.85 56.9-2.85L56.9-2.85Q56.55-2.85 56.55-3L56.55-3Q56.8-4.5 57.02-6.8 57.25-9.1 57.25-11.75L57.25-11.75Q57.25-15.45 56.87-19.15 56.5-22.85 55.55-25.93 54.6-29 52.8-30.75L52.8-30.75 54.9-34.1Q57.7-31.35 60.85-29.15 64-26.95 66.97-25 69.95-23.05 72.35-21.05 74.75-19.05 76.2-16.73 77.65-14.4 77.65-11.35L77.65-11.35Q77.65-8.45 76.55-6.33 75.45-4.2 73.65-2.73 71.85-1.25 69.72-0.33 67.6 0.6 65.52 1 63.45 1.4 61.85 1.4ZM82.39 1.4L82.39 1.4Q81.99 1.4 81.99 1.2L81.99 1.2Q82.74-3.35 82.97-7.23 83.19-11.1 83.19-15.1L83.19-15.1Q83.19-19.55 82.92-24.25 82.64-28.95 82.09-32.95L82.09-32.95 83.39-33.85 87.84-31.55Q87.69-28.65 87.47-24.85 87.24-21.05 86.89-17 86.54-12.95 86.14-9.13 85.74-5.3 85.24-2.35L85.24-2.35Q85.64-2.35 86.07-2.33 86.49-2.3 86.89-2.3L86.89-2.3Q89.99-2.3 93.04-2.83 96.09-3.35 98.99-4.9L98.99-4.9 99.84-3.6 98.19 0.7Q96.79 0.85 95.49 0.9 94.19 0.95 92.89 0.95L92.89 0.95Q90.84 0.95 88.84 0.73 86.84 0.5 84.84 0L84.84 0 84.69 0.6Q84.39 0.95 83.59 1.18 82.79 1.4 82.39 1.4ZM139.19 1.7L139.19 1.7Q138.84 1.7 138.19 1.5 137.54 1.3 137.24 0.95L137.24 0.95Q136.44-3.05 135.84-6.93 135.24-10.8 134.94-14.6L134.94-14.6Q132.49-14.1 129.96-13.78 127.44-13.45 124.94-13.45L124.94-13.45Q124.54-13.45 124.11-13.45 123.69-13.45 123.29-13.5L123.29-13.5Q122.94-9.85 122.41-6.25 121.89-2.65 121.34 0.7L121.34 0.7Q120.99 1.15 120.16 1.4 119.34 1.65 118.94 1.65L118.94 1.65Q118.39 1.65 118.39 1.4L118.39 1.4Q118.39 1.4 118.76-0.2 119.14-1.8 119.51-4.95 119.89-8.1 119.89-12.65L119.89-12.65Q119.89-12.9 119.86-13.2 119.84-13.5 119.84-13.8L119.84-13.8Q118.64-13.95 116.84-14.4L116.84-14.4Q116.49-14.75 116.29-15.45 116.09-16.15 116.09-16.45L116.09-16.45Q116.09-16.9 116.29-16.9L116.29-16.9Q116.59-16.9 117.41-16.65 118.24-16.4 119.79-16.25L119.79-16.25Q119.59-19.45 119.19-22.25 118.79-25.05 118.36-27.2 117.94-29.35 117.64-30.58 117.34-31.8 117.34-31.8L117.34-31.8 121.69-33.85 122.99-33.05Q123.39-30.6 123.56-28.05 123.74-25.5 123.74-22.9L123.74-22.9Q123.74-21.2 123.66-19.53 123.59-17.85 123.49-16.15L123.49-16.15Q126.24-16.25 129.19-16.78 132.14-17.3 134.69-18.45L134.69-18.45Q134.64-19.25 134.64-20.03 134.64-20.8 134.64-21.6L134.64-21.6Q134.64-24.5 134.89-27.33 135.14-30.15 135.59-33.05L135.59-33.05 136.89-33.85 141.14-31.8Q139.79-28.35 139.31-23.7 138.84-19.05 138.84-13.65L138.84-13.65Q138.84-9.05 139.06-4.98 139.29-0.9 139.59 1.55L139.59 1.55Q139.59 1.7 139.19 1.7ZM169.99 1.7L169.99 1.7Q169.64 1.7 168.99 1.5 168.34 1.3 168.04 0.95L168.04 0.95Q167.59-1.3 167.19-3.55 166.79-5.8 166.49-7.95L166.49-7.95Q165.79-5.3 164.59-3.1 163.39-0.9 161.51 0.38 159.64 1.65 156.99 1.65L156.99 1.65Q154.19 1.65 152.36 0.03 150.54-1.6 149.51-4.33 148.49-7.05 148.06-10.45 147.64-13.85 147.64-17.45L147.64-17.45Q147.64-21.95 148.09-26.15 148.54-30.35 148.99-33.05L148.99-33.05 150.29-33.85 154.54-31.8Q154.04-30.15 153.46-27.48 152.89-24.8 152.51-21.6 152.14-18.4 152.14-15.25L152.14-15.25Q152.14-11.9 152.71-9 153.29-6.1 154.71-4.33 156.14-2.55 158.64-2.55L158.64-2.55Q160.74-2.55 162.24-4.1 163.74-5.65 164.64-8.05 165.54-10.45 165.89-13L165.89-13Q165.44-17.35 165.44-21.6L165.44-21.6Q165.44-24.5 165.69-27.33 165.94-30.15 166.39-33.05L166.39-33.05 167.69-33.85 171.94-31.8Q170.59-28.35 170.11-23.7 169.64-19.05 169.64-13.65L169.64-13.65Q169.64-9.05 169.86-4.98 170.09-0.9 170.39 1.55L170.39 1.55Q170.39 1.7 169.99 1.7ZM187.08 1.7L187.08 1.7Q186.73 1.7 185.91 1.5 185.08 1.3 184.83 0.95L184.83 0.95Q184.33-1.8 184.03-4.83 183.73-7.85 183.68-10.8L183.68-10.8Q182.58-13.2 181.48-16 180.38-18.8 179.43-21.68 178.48-24.55 177.83-27.18 177.18-29.8 176.93-31.8L176.93-31.8 181.28-33.85 182.58-33.05Q182.58-28.5 183.23-24.05 183.88-19.6 185.13-15.6L185.13-15.6Q185.38-16.1 186.21-17.57 187.03-19.05 188.23-21.08 189.43-23.1 190.83-25.33 192.23-27.55 193.63-29.63 195.03-31.7 196.28-33.25L196.28-33.25Q196.53-33.55 197.26-33.75 197.98-33.95 198.43-33.95L198.43-33.95Q198.73-33.95 198.73-33.7L198.73-33.7Q198.73-33.45 197.83-31.98 196.93-30.5 195.53-28.18 194.13-25.85 192.58-22.95 191.03-20.05 189.68-16.95 188.33-13.85 187.58-10.9L187.58-10.9Q187.28-8 187.28-4.35L187.28-4.35Q187.28-1 187.38 0.15 187.48 1.3 187.48 1.55L187.48 1.55Q187.48 1.7 187.08 1.7ZM216.93 1.7L216.93 1.7Q216.48 1.7 216.48 1.55L216.48 1.55Q216.68-0.45 216.9-3.63 217.13-6.8 217.18-10.45L217.18-10.45Q216.33-10.45 215.45-10.45 214.58-10.45 213.83-10.5L213.83-10.5Q213.33-10.95 213.15-11.58 212.98-12.2 212.98-12.5L212.98-12.5Q212.98-12.9 213.13-12.9L213.13-12.9Q213.93-12.75 214.83-12.73 215.73-12.7 217.18-12.7L217.18-12.7Q217.13-16.3 216.75-19.85 216.38-23.4 215.53-26.38 214.68-29.35 213.18-31.1L213.18-31.1 215.53-34.45Q218.28-32.55 221-31.25 223.73-29.95 226.15-28.88 228.58-27.8 230.45-26.68 232.33-25.55 233.4-24.08 234.48-22.6 234.48-20.45L234.48-20.45Q234.48-18.95 233.8-17.35 233.13-15.75 231.53-14.33 229.93-12.9 227.15-11.88 224.38-10.85 220.18-10.55L220.18-10.55Q219.93-7.6 219.58-4.7 219.23-1.8 218.88 0.95L218.88 0.95Q218.53 1.3 217.9 1.5 217.28 1.7 216.93 1.7ZM220.33-12.95L220.33-12.95Q225.08-13.65 227.25-15.7 229.43-17.75 229.43-20.15L229.43-20.15Q229.43-22.35 228.13-23.83 226.83-25.3 224.63-26.48 222.43-27.65 219.68-28.85L219.68-28.85Q220.18-26.1 220.35-23.6 220.53-21.1 220.53-18.45L220.53-18.45Q220.53-17.1 220.48-15.73 220.43-14.35 220.33-12.95ZM260.33 1.7L260.33 1.7Q259.98 1.7 259.33 1.5 258.68 1.3 258.38 0.95L258.38 0.95Q257.58-3.05 256.98-6.93 256.38-10.8 256.08-14.6L256.08-14.6Q253.63-14.1 251.1-13.78 248.58-13.45 246.08-13.45L246.08-13.45Q245.68-13.45 245.25-13.45 244.83-13.45 244.43-13.5L244.43-13.5Q244.08-9.85 243.55-6.25 243.03-2.65 242.48 0.7L242.48 0.7Q242.13 1.15 241.3 1.4 240.48 1.65 240.08 1.65L240.08 1.65Q239.53 1.65 239.53 1.4L239.53 1.4Q239.53 1.4 239.9-0.2 240.28-1.8 240.65-4.95 241.03-8.1 241.03-12.65L241.03-12.65Q241.03-12.9 241-13.2 240.98-13.5 240.98-13.8L240.98-13.8Q239.78-13.95 237.98-14.4L237.98-14.4Q237.63-14.75 237.43-15.45 237.23-16.15 237.23-16.45L237.23-16.45Q237.23-16.9 237.43-16.9L237.43-16.9Q237.73-16.9 238.55-16.65 239.38-16.4 240.93-16.25L240.93-16.25Q240.73-19.45 240.33-22.25 239.93-25.05 239.5-27.2 239.08-29.35 238.78-30.58 238.48-31.8 238.48-31.8L238.48-31.8 242.83-33.85 244.13-33.05Q244.53-30.6 244.7-28.05 244.88-25.5 244.88-22.9L244.88-22.9Q244.88-21.2 244.8-19.53 244.73-17.85 244.63-16.15L244.63-16.15Q247.38-16.25 250.33-16.78 253.28-17.3 255.83-18.45L255.83-18.45Q255.78-19.25 255.78-20.03 255.78-20.8 255.78-21.6L255.78-21.6Q255.78-24.5 256.03-27.33 256.28-30.15 256.73-33.05L256.73-33.05 258.03-33.85 262.28-31.8Q260.93-28.35 260.45-23.7 259.98-19.05 259.98-13.65L259.98-13.65Q259.98-9.05 260.2-4.98 260.43-0.9 260.73 1.55L260.73 1.55Q260.73 1.7 260.33 1.7ZM291.12 1.7L291.12 1.7Q290.77 1.7 290.12 1.5 289.47 1.3 289.17 0.95L289.17 0.95Q288.72-1.3 288.32-3.55 287.92-5.8 287.62-7.95L287.62-7.95Q286.92-5.3 285.72-3.1 284.52-0.9 282.65 0.38 280.77 1.65 278.12 1.65L278.12 1.65Q275.32 1.65 273.5 0.03 271.67-1.6 270.65-4.33 269.62-7.05 269.2-10.45 268.77-13.85 268.77-17.45L268.77-17.45Q268.77-21.95 269.22-26.15 269.67-30.35 270.12-33.05L270.12-33.05 271.42-33.85 275.67-31.8Q275.17-30.15 274.6-27.48 274.02-24.8 273.65-21.6 273.27-18.4 273.27-15.25L273.27-15.25Q273.27-11.9 273.85-9 274.42-6.1 275.85-4.33 277.27-2.55 279.77-2.55L279.77-2.55Q281.87-2.55 283.37-4.1 284.87-5.65 285.77-8.05 286.67-10.45 287.02-13L287.02-13Q286.57-17.35 286.57-21.6L286.57-21.6Q286.57-24.5 286.82-27.33 287.07-30.15 287.52-33.05L287.52-33.05 288.82-33.85 293.07-31.8Q291.72-28.35 291.25-23.7 290.77-19.05 290.77-13.65L290.77-13.65Q290.77-9.05 291-4.98 291.22-0.9 291.52 1.55L291.52 1.55Q291.52 1.7 291.12 1.7ZM306.97 1.6L306.97 1.6Q303.77 1.6 301.5-0.2 299.22-2 298.02-5.23 296.82-8.45 296.82-12.6L296.82-12.6Q296.82-15.7 297.9-19.03 298.97-22.35 301.37-25.4 303.77-28.45 307.77-30.7 311.77-32.95 317.62-33.85L317.62-33.85 318.47-32.55 316.82-28.25Q316.02-28.35 315.3-28.4 314.57-28.45 313.87-28.45L313.87-28.45Q310.17-28.45 307.72-27.23 305.27-26 303.87-24.03 302.47-22.05 301.87-19.75 301.27-17.45 301.27-15.35L301.27-15.35Q301.27-11 302.2-8.2 303.12-5.4 304.62-4.08 306.12-2.75 307.72-2.75L307.72-2.75Q311.22-2.75 313.5-5.53 315.77-8.3 317.32-13.75L317.32-13.75Q317.42-14.15 317.67-14.15L317.67-14.15Q317.92-14.15 318.35-14 318.77-13.85 319.22-13.45L319.22-13.45Q318.52-8.7 316.6-5.33 314.67-1.95 312.12-0.18 309.57 1.6 306.97 1.6Z" opacity="1" transform="matrix(1,0,0,1,0,0)" fill="#33334f" class="slogan-text-1" data-fill-palette-color="secondary" id="text-1"></path></svg></g></svg></g></svg></g></svg></g><g transform="matrix(1,0,0,1,109.56005206129144,0)"><svg viewBox="0 0 176.3998958774171 178.28660611340285" height="178.28660611340285" width="176.3998958774171"><g><svg xmlns="http://www.w3.org/2000/svg" xml:space="preserve" viewBox="5.842530827243697 -0.00005034296303153099 115.15746917275631 127.99905034296302" id="icon-0" width="160.3998958774171" height="178.28660611340285" x="8" y="0" class="icon-icon-0" data-fill-palette-color="accent"><path d="M15.585 105.101A8.99 8.99 0 0 0 23.007 109a8.96 8.96 0 0 0 5.092-1.586c4.096-2.814 5.132-8.419 2.316-12.516A9 9 0 0 0 22.992 91a9 9 0 0 0-1.898 0.229A21 21 0 0 1 20 84.548c0-5.781 2.337-10.968 6.022-14.55A10 10 0 0 0 32.008 72a9.95 9.95 0 0 0 5.658-1.763c4.551-3.127 5.701-9.354 2.574-13.906A9.99 9.99 0 0 0 31.992 52a9.95 9.95 0 0 0-5.659 1.762c-4.332 2.977-5.573 8.763-2.982 13.237C18.844 71.314 16 77.581 16 84.548c0 2.895 0.51 5.729 1.454 8.378-3.714 2.906-4.578 8.236-1.869 12.175m19.813-38.16A5.94 5.94 0 0 1 32.008 68a6 6 0 0 1-2.622-0.609 16.8 16.8 0 0 1 7.773-2.344 5.9 5.9 0 0 1-1.761 1.894m-9.296-6.033a5.95 5.95 0 0 1 2.498-3.85A5.96 5.96 0 0 1 31.992 56a6.01 6.01 0 0 1 4.951 2.596c0.512 0.746 0.826 1.568 0.966 2.406-4.165 0.018-8.06 1.281-11.377 3.458a5.95 5.95 0 0 1-0.43-3.552M22.992 95a5.01 5.01 0 0 1 4.126 2.164 4.97 4.97 0 0 1 0.799 3.723 2 2 0 0 0-0.419-0.463c-1.89-1.477-3.467-3.325-4.684-5.41 0.06-0.002 0.119-0.014 0.178-0.014m2.043 8.576c0.295 0.23 0.638 0.34 0.984 0.384-0.065 0.05-0.119 0.111-0.188 0.159a4.97 4.97 0 0 1-2.824 0.881 5.01 5.01 0 0 1-4.126-2.166 4.97 4.97 0 0 1-0.797-3.744 4.95 4.95 0 0 1 1.128-2.324c1.489 2.627 3.453 4.957 5.823 6.81" fill="#33334f" data-fill-palette-color="accent"></path><path d="M13.439 75.515a28 28 0 0 1 1.904-4.467c-6.473-11.503-3.296-26.365 7.622-34 4.221-2.952 9.145-4.511 14.24-4.511 4.67 0 9.239 1.309 13.213 3.783a3.993 3.993 0 0 0 4.407-0.119l45.499-31.838c0.239-0.151 0.94-0.363 1.294-0.363q0.149 0.01 0.297 0.011h0.003l11.459-0.008-3.344 13.573-1.742 1.218-7.859-1.692a4 4 0 0 0-3.066 0.585 4 4 0 0 0-1.712 2.609l-1.125 6.183-6.421-1.831a3.995 3.995 0 0 0-3.485 0.638 4 4 0 0 0-1.612 3.155l-0.073 5.485-5.515-1.448a4.004 4.004 0 0 0-4.967 3.239l-1.537 9.646-7.083 4.952a4 4 0 0 0-1.66 3.894c1.521 9.764-2.661 19.685-10.653 25.274C47.3 82.438 42.371 84 37.271 84a24.93 24.93 0 0 1-12.765-3.53A16.8 16.8 0 0 0 24 84.548c0 0.077 0.009 0.153 0.011 0.231A29 29 0 0 0 37.271 88c5.713 0 11.482-1.697 16.545-5.237 9.597-6.711 14.021-18.205 12.313-29.168l8.474-5.925 1.805-11.322 8.401 2.206q0.258 0.066 0.497 0.065c0.9 0 1.578-0.675 1.592-1.689l0.113-8.435 8.615 2.457q0.283 0.08 0.557 0.079c0.912 0 1.699-0.643 1.878-1.622l1.528-8.396 8.525 1.835c0.124 0.026 0.263 0.039 0.406 0.039 0.522 0 1.131-0.164 1.51-0.428l2.629-1.839c0.483-0.339 1-1.08 1.15-1.656l4.118-16.715c0.306-1.156-0.399-2.161-1.569-2.248l-14.444 0.011a3 3 0 0 0-0.286-0.012c-1.152 0-2.694 0.456-3.585 1.078l-45.51 31.845a29.03 29.03 0 0 0-15.327-4.388c-5.708 0-11.473 1.695-16.532 5.233C7.367 43.075 4 61.587 13.151 75.116c0.093 0.137 0.194 0.264 0.288 0.399" fill="#33334f" data-fill-palette-color="accent"></path><path d="M113 72H67.557a34 34 0 0 1-2.081 4H113c2.206 0 4 1.795 4 4v40c0 2.205-1.794 4-4 4H32.28c-3.175 0-7.862-2.266-9.834-4.754l-11.343-14.313c-1.61-2.034-1.685-5.795-0.155-7.89l2.527-3.462a29 29 0 0 1-1.187-5.158l-4.571 6.262c-2.595 3.554-2.481 9.283 0.251 12.731l11.343 14.313c2.732 3.448 8.568 6.27 12.969 6.27H113c4.4 0 8-3.6 8-8V80c0-4.4-3.6-8-8-8" fill="#33334f" data-fill-palette-color="accent"></path></svg></g></svg></g><g><rect width="61.47502692077647" height="7.381527255890755" y="169.9050788575121" x="285.9599479387085" fill="#33334f" data-fill-palette-color="accent"></rect><rect width="61.47502692077647" height="7.381527255890755" y="169.9050788575121" x="48.08502514051497" fill="#33334f" data-fill-palette-color="accent"></rect><rect width="61.47502692077647" height="7.381527255890755" y="155.1420243457306" x="285.9599479387085" fill="#33334f" data-fill-palette-color="accent"></rect><rect width="61.47502692077647" height="7.381527255890755" y="155.1420243457306" x="48.08502514051497" fill="#33334f" data-fill-palette-color="accent"></rect></g></svg></g><defs></defs></svg><rect width="299.34994971897004" height="247.2" fill="none" stroke="none" visibility="hidden"></rect></g></svg></g></svg>